<mxfile host="app.diagrams.net" modified="2021-04-26T03:09:55.542Z" agent="5.0 (Macintosh; Intel Mac OS X 10_15_4) AppleWebKit/537.36 (KHTML, like Gecko) Chrome/90.0.4430.85 Safari/537.36" etag="VJlhtb4os-65yJGFZEGg" version="14.6.6" type="github">
  <diagram id="rduDlSjaGDs_5Vcp6t-S" name="Page-1">
    <mxGraphModel dx="1426" dy="826" grid="1" gridSize="10" guides="1" tooltips="1" connect="1" arrows="1" fold="1" page="1" pageScale="1" pageWidth="50000" pageHeight="50000" math="0" shadow="0">
      <root>
        <mxCell id="0" />
        <mxCell id="1" parent="0" />
        <mxCell id="Gfxy7qUQVM0kx5SEdBj8-6" style="rounded=0;orthogonalLoop=1;jettySize=auto;html=1;exitX=0.5;exitY=1;exitDx=0;exitDy=0;entryX=0.5;entryY=0;entryDx=0;entryDy=0;endArrow=none;endFill=0;" edge="1" parent="1" source="Gfxy7qUQVM0kx5SEdBj8-1" target="Gfxy7qUQVM0kx5SEdBj8-2">
          <mxGeometry relative="1" as="geometry" />
        </mxCell>
        <mxCell id="Gfxy7qUQVM0kx5SEdBj8-7" style="edgeStyle=none;rounded=0;orthogonalLoop=1;jettySize=auto;html=1;exitX=0.5;exitY=1;exitDx=0;exitDy=0;entryX=0.5;entryY=0;entryDx=0;entryDy=0;endArrow=none;endFill=0;" edge="1" parent="1" source="Gfxy7qUQVM0kx5SEdBj8-1" target="Gfxy7qUQVM0kx5SEdBj8-3">
          <mxGeometry relative="1" as="geometry" />
        </mxCell>
        <mxCell id="Gfxy7qUQVM0kx5SEdBj8-8" style="edgeStyle=none;rounded=0;orthogonalLoop=1;jettySize=auto;html=1;exitX=0.5;exitY=1;exitDx=0;exitDy=0;entryX=0.5;entryY=0;entryDx=0;entryDy=0;endArrow=none;endFill=0;" edge="1" parent="1" source="Gfxy7qUQVM0kx5SEdBj8-1" target="Gfxy7qUQVM0kx5SEdBj8-4">
          <mxGeometry relative="1" as="geometry" />
        </mxCell>
        <mxCell id="Gfxy7qUQVM0kx5SEdBj8-1" value="A" style="ellipse;whiteSpace=wrap;html=1;aspect=fixed;" vertex="1" parent="1">
          <mxGeometry x="460" y="250" width="30" height="30" as="geometry" />
        </mxCell>
        <mxCell id="Gfxy7qUQVM0kx5SEdBj8-14" style="edgeStyle=none;rounded=0;orthogonalLoop=1;jettySize=auto;html=1;exitX=0.5;exitY=1;exitDx=0;exitDy=0;entryX=0.5;entryY=0;entryDx=0;entryDy=0;endArrow=none;endFill=0;" edge="1" parent="1" source="Gfxy7qUQVM0kx5SEdBj8-2" target="Gfxy7qUQVM0kx5SEdBj8-10">
          <mxGeometry relative="1" as="geometry" />
        </mxCell>
        <mxCell id="Gfxy7qUQVM0kx5SEdBj8-16" style="edgeStyle=none;rounded=0;orthogonalLoop=1;jettySize=auto;html=1;exitX=0.5;exitY=1;exitDx=0;exitDy=0;entryX=0.5;entryY=0;entryDx=0;entryDy=0;endArrow=none;endFill=0;" edge="1" parent="1" source="Gfxy7qUQVM0kx5SEdBj8-2" target="Gfxy7qUQVM0kx5SEdBj8-11">
          <mxGeometry relative="1" as="geometry" />
        </mxCell>
        <mxCell id="Gfxy7qUQVM0kx5SEdBj8-2" value="B" style="ellipse;whiteSpace=wrap;html=1;aspect=fixed;" vertex="1" parent="1">
          <mxGeometry x="380" y="330" width="30" height="30" as="geometry" />
        </mxCell>
        <mxCell id="Gfxy7qUQVM0kx5SEdBj8-17" style="edgeStyle=none;rounded=0;orthogonalLoop=1;jettySize=auto;html=1;exitX=0.5;exitY=1;exitDx=0;exitDy=0;entryX=0.5;entryY=0;entryDx=0;entryDy=0;endArrow=none;endFill=0;" edge="1" parent="1" source="Gfxy7qUQVM0kx5SEdBj8-3" target="Gfxy7qUQVM0kx5SEdBj8-12">
          <mxGeometry relative="1" as="geometry" />
        </mxCell>
        <mxCell id="Gfxy7qUQVM0kx5SEdBj8-3" value="C" style="ellipse;whiteSpace=wrap;html=1;aspect=fixed;" vertex="1" parent="1">
          <mxGeometry x="460" y="330" width="30" height="30" as="geometry" />
        </mxCell>
        <mxCell id="Gfxy7qUQVM0kx5SEdBj8-4" value="D" style="ellipse;whiteSpace=wrap;html=1;aspect=fixed;" vertex="1" parent="1">
          <mxGeometry x="530" y="330" width="30" height="30" as="geometry" />
        </mxCell>
        <mxCell id="Gfxy7qUQVM0kx5SEdBj8-10" value="E" style="ellipse;whiteSpace=wrap;html=1;aspect=fixed;" vertex="1" parent="1">
          <mxGeometry x="340" y="400" width="30" height="30" as="geometry" />
        </mxCell>
        <mxCell id="Gfxy7qUQVM0kx5SEdBj8-11" value="F" style="ellipse;whiteSpace=wrap;html=1;aspect=fixed;" vertex="1" parent="1">
          <mxGeometry x="410" y="400" width="30" height="30" as="geometry" />
        </mxCell>
        <mxCell id="Gfxy7qUQVM0kx5SEdBj8-12" value="G" style="ellipse;whiteSpace=wrap;html=1;aspect=fixed;" vertex="1" parent="1">
          <mxGeometry x="460" y="400" width="30" height="30" as="geometry" />
        </mxCell>
        <mxCell id="Gfxy7qUQVM0kx5SEdBj8-18" style="rounded=0;orthogonalLoop=1;jettySize=auto;html=1;exitX=0.5;exitY=1;exitDx=0;exitDy=0;entryX=0.5;entryY=0;entryDx=0;entryDy=0;endArrow=none;endFill=0;dashed=1;" edge="1" parent="1" source="Gfxy7qUQVM0kx5SEdBj8-21" target="Gfxy7qUQVM0kx5SEdBj8-24">
          <mxGeometry relative="1" as="geometry" />
        </mxCell>
        <mxCell id="Gfxy7qUQVM0kx5SEdBj8-19" style="edgeStyle=none;rounded=0;orthogonalLoop=1;jettySize=auto;html=1;exitX=0.5;exitY=1;exitDx=0;exitDy=0;entryX=0.5;entryY=0;entryDx=0;entryDy=0;endArrow=none;endFill=0;dashed=1;" edge="1" parent="1" source="Gfxy7qUQVM0kx5SEdBj8-21" target="Gfxy7qUQVM0kx5SEdBj8-26">
          <mxGeometry relative="1" as="geometry" />
        </mxCell>
        <mxCell id="Gfxy7qUQVM0kx5SEdBj8-20" style="edgeStyle=none;rounded=0;orthogonalLoop=1;jettySize=auto;html=1;exitX=0.5;exitY=1;exitDx=0;exitDy=0;entryX=0.5;entryY=0;entryDx=0;entryDy=0;endArrow=none;endFill=0;dashed=1;" edge="1" parent="1" source="Gfxy7qUQVM0kx5SEdBj8-21" target="Gfxy7qUQVM0kx5SEdBj8-27">
          <mxGeometry relative="1" as="geometry" />
        </mxCell>
        <mxCell id="Gfxy7qUQVM0kx5SEdBj8-21" value="" style="ellipse;whiteSpace=wrap;html=1;aspect=fixed;" vertex="1" parent="1">
          <mxGeometry x="820" y="255" width="30" height="30" as="geometry" />
        </mxCell>
        <mxCell id="Gfxy7qUQVM0kx5SEdBj8-22" style="edgeStyle=none;rounded=0;orthogonalLoop=1;jettySize=auto;html=1;exitX=0.5;exitY=1;exitDx=0;exitDy=0;entryX=0.5;entryY=0;entryDx=0;entryDy=0;endArrow=none;endFill=0;" edge="1" parent="1" source="Gfxy7qUQVM0kx5SEdBj8-24" target="Gfxy7qUQVM0kx5SEdBj8-28">
          <mxGeometry relative="1" as="geometry" />
        </mxCell>
        <mxCell id="Gfxy7qUQVM0kx5SEdBj8-23" style="edgeStyle=none;rounded=0;orthogonalLoop=1;jettySize=auto;html=1;exitX=0.5;exitY=1;exitDx=0;exitDy=0;entryX=0.5;entryY=0;entryDx=0;entryDy=0;endArrow=none;endFill=0;" edge="1" parent="1" source="Gfxy7qUQVM0kx5SEdBj8-24" target="Gfxy7qUQVM0kx5SEdBj8-29">
          <mxGeometry relative="1" as="geometry" />
        </mxCell>
        <mxCell id="Gfxy7qUQVM0kx5SEdBj8-24" value="B" style="ellipse;whiteSpace=wrap;html=1;aspect=fixed;" vertex="1" parent="1">
          <mxGeometry x="740" y="335" width="30" height="30" as="geometry" />
        </mxCell>
        <mxCell id="Gfxy7qUQVM0kx5SEdBj8-25" style="edgeStyle=none;rounded=0;orthogonalLoop=1;jettySize=auto;html=1;exitX=0.5;exitY=1;exitDx=0;exitDy=0;entryX=0.5;entryY=0;entryDx=0;entryDy=0;endArrow=none;endFill=0;" edge="1" parent="1" source="Gfxy7qUQVM0kx5SEdBj8-26" target="Gfxy7qUQVM0kx5SEdBj8-30">
          <mxGeometry relative="1" as="geometry" />
        </mxCell>
        <mxCell id="Gfxy7qUQVM0kx5SEdBj8-26" value="C" style="ellipse;whiteSpace=wrap;html=1;aspect=fixed;" vertex="1" parent="1">
          <mxGeometry x="820" y="335" width="30" height="30" as="geometry" />
        </mxCell>
        <mxCell id="Gfxy7qUQVM0kx5SEdBj8-27" value="D" style="ellipse;whiteSpace=wrap;html=1;aspect=fixed;" vertex="1" parent="1">
          <mxGeometry x="890" y="335" width="30" height="30" as="geometry" />
        </mxCell>
        <mxCell id="Gfxy7qUQVM0kx5SEdBj8-33" style="edgeStyle=none;rounded=0;orthogonalLoop=1;jettySize=auto;html=1;exitX=0.5;exitY=1;exitDx=0;exitDy=0;entryX=0.5;entryY=0;entryDx=0;entryDy=0;endArrow=none;endFill=0;" edge="1" parent="1" source="Gfxy7qUQVM0kx5SEdBj8-28" target="Gfxy7qUQVM0kx5SEdBj8-31">
          <mxGeometry relative="1" as="geometry" />
        </mxCell>
        <mxCell id="Gfxy7qUQVM0kx5SEdBj8-34" style="edgeStyle=none;rounded=0;orthogonalLoop=1;jettySize=auto;html=1;exitX=0.5;exitY=1;exitDx=0;exitDy=0;entryX=0.5;entryY=0;entryDx=0;entryDy=0;endArrow=none;endFill=0;" edge="1" parent="1" source="Gfxy7qUQVM0kx5SEdBj8-28" target="Gfxy7qUQVM0kx5SEdBj8-32">
          <mxGeometry relative="1" as="geometry" />
        </mxCell>
        <mxCell id="Gfxy7qUQVM0kx5SEdBj8-28" value="E" style="ellipse;whiteSpace=wrap;html=1;aspect=fixed;" vertex="1" parent="1">
          <mxGeometry x="700" y="405" width="30" height="30" as="geometry" />
        </mxCell>
        <mxCell id="Gfxy7qUQVM0kx5SEdBj8-29" value="F" style="ellipse;whiteSpace=wrap;html=1;aspect=fixed;" vertex="1" parent="1">
          <mxGeometry x="770" y="405" width="30" height="30" as="geometry" />
        </mxCell>
        <mxCell id="Gfxy7qUQVM0kx5SEdBj8-30" value="G" style="ellipse;whiteSpace=wrap;html=1;aspect=fixed;" vertex="1" parent="1">
          <mxGeometry x="820" y="405" width="30" height="30" as="geometry" />
        </mxCell>
        <mxCell id="Gfxy7qUQVM0kx5SEdBj8-31" value="H" style="ellipse;whiteSpace=wrap;html=1;aspect=fixed;" vertex="1" parent="1">
          <mxGeometry x="670" y="470" width="30" height="30" as="geometry" />
        </mxCell>
        <mxCell id="Gfxy7qUQVM0kx5SEdBj8-32" value="I" style="ellipse;whiteSpace=wrap;html=1;aspect=fixed;" vertex="1" parent="1">
          <mxGeometry x="740" y="470" width="30" height="30" as="geometry" />
        </mxCell>
      </root>
    </mxGraphModel>
  </diagram>
</mxfile>
